<svg width="100" height="100" viewBox="0 0 100 100" xmlns="http://www.w3.org/2000/svg">
  <!-- Background circle -->
  <circle cx="50" cy="50" r="50" fill="#fce4ec"/>
  
  <!-- Character face -->
  <circle cx="50" cy="45" r="30" fill="#fff"/>
  
  <!-- Hair -->
  <path d="M 30 30 Q 50 15 70 30 L 70 50 Q 50 40 30 50 Z" fill="#8d6e63"/>
  <ellipse cx="50" cy="25" rx="25" ry="20" fill="#8d6e63"/>
  
  <!-- Eyes -->
  <circle cx="42" cy="45" r="3" fill="#4a2c2a"/>
  <circle cx="58" cy="45" r="3" fill="#4a2c2a"/>
  <circle cx="42.5" cy="44" r="1" fill="#fff"/>
  <circle cx="58.5" cy="44" r="1" fill="#fff"/>
  
  <!-- Blush -->
  <ellipse cx="37" cy="50" rx="4" ry="2" fill="#f48fb1" opacity="0.5"/>
  <ellipse cx="63" cy="50" rx="4" ry="2" fill="#f48fb1" opacity="0.5"/>
  
  <!-- Mouth -->
  <path d="M 45 52 Q 50 55 55 52" stroke="#ec407a" stroke-width="1.5" fill="none" stroke-linecap="round"/>
  
  <!-- Decorative bow -->
  <path d="M 65 25 L 70 20 L 75 25 L 70 22 Z" fill="#ec407a"/>
  <path d="M 75 25 L 80 20 L 85 25 L 80 22 Z" fill="#ec407a"/>
  <circle cx="77.5" cy="25" r="3" fill="#f48fb1"/>
</svg>
